<?xml version="1.0" encoding="utf-8"?>
<!-- Generator: Adobe Illustrator 24.1.3, SVG Export Plug-In . SVG Version: 6.00 Build 0)  -->
<svg version="1.1" id="Layer_2" xmlns="http://www.w3.org/2000/svg" xmlns:xlink="http://www.w3.org/1999/xlink" x="0px" y="0px"
	 viewBox="0 0 720 720" style="enable-background:new 0 0 720 720;" xml:space="preserve">
<style type="text/css">
	.st0{fill:url(#Path_466_2_);}
	.st1{fill:url(#Path_467_2_);}
	.st2{fill:url(#Path_468_2_);}
	.st3{fill:url(#Path_469_2_);}
	.st4{fill:url(#Path_470_2_);}
	.st5{fill:url(#Path_471_2_);}
</style>
<g id="Group_98" transform="translate(0 -19)">
	<g id="Group_93_1_" transform="translate(23.131 32.071)">
		<linearGradient id="Path_466_2_" gradientUnits="userSpaceOnUse" x1="377.2972" y1="264.1054" x2="581.9719" y2="264.1054">
			<stop  offset="0.892" style="stop-color:#405ED4"/>
			<stop  offset="1" style="stop-color:#3A54DA"/>
		</linearGradient>
		<path id="Path_466_1_" class="st0" d="M531.02,308.59c8.07,0.01,15.36-4.82,18.51-12.25l32.45-76.72H427.89
			c-8.11,0-15.42,4.87-18.55,12.35l-32.04,76.62H531.02z"/>
		<linearGradient id="Path_467_2_" gradientUnits="userSpaceOnUse" x1="91.7737" y1="264.0901" x2="310.2562" y2="264.0901">
			<stop  offset="0.892" style="stop-color:#405ED4"/>
			<stop  offset="1" style="stop-color:#3A54DA"/>
		</linearGradient>
		<path id="Path_467_1_" class="st1" d="M310.26,308.59l-29.09-71.25c-4.37-10.73-14.8-17.75-26.39-17.75H91.77l30.26,71.59
			c4.47,10.55,14.81,17.41,26.27,17.41H310.26z"/>
		<linearGradient id="Path_468_2_" gradientUnits="userSpaceOnUse" x1="144.8999" y1="389.7644" x2="528.8152" y2="389.7644">
			<stop  offset="0.892" style="stop-color:#405ED4"/>
			<stop  offset="1" style="stop-color:#3A54DA"/>
		</linearGradient>
		<path id="Path_468_1_" class="st2" d="M476,434.27c9.21,0,17.52-5.52,21.1-14l31.71-75.01H361.96l-18.57,44.39l-18.13-44.39H144.9
			l31.71,75.01c3.59,8.48,11.91,13.99,21.12,14H476z"/>
		<linearGradient id="Path_469_2_" gradientUnits="userSpaceOnUse" x1="205.9891" y1="535.7256" x2="467.7454" y2="535.7256">
			<stop  offset="0.892" style="stop-color:#405ED4"/>
			<stop  offset="1" style="stop-color:#3A54DA"/>
		</linearGradient>
		<path id="Path_469_1_" class="st3" d="M207.22,492.62l41.59,98.36c2.44,5.77,8.09,9.52,14.36,9.51h147.39
			c6.26,0,11.92-3.74,14.36-9.51l41.59-98.36c3.35-7.94-0.36-17.09-8.3-20.44c-1.92-0.81-3.98-1.23-6.06-1.23H221.58
			c-8.61,0-15.6,6.99-15.6,15.6C205.99,488.64,206.41,490.7,207.22,492.62z"/>
		<linearGradient id="Path_470_2_" gradientUnits="userSpaceOnUse" x1="429.8035" y1="138.1365" x2="635.3278" y2="138.1365">
			<stop  offset="0.892" style="stop-color:#405ED4"/>
			<stop  offset="1" style="stop-color:#3A54DA"/>
		</linearGradient>
		<path id="Path_470_1_" class="st4" d="M584.19,182.91c8.05-0.01,15.32-4.83,18.46-12.25l32.67-77.31H480.57
			c-8.08,0-15.37,4.85-18.49,12.31l-32.28,77.21L584.19,182.91z"/>
		<linearGradient id="Path_471_2_" gradientUnits="userSpaceOnUse" x1="38.4103" y1="138.1747" x2="258.9516" y2="138.1747">
			<stop  offset="0.892" style="stop-color:#405ED4"/>
			<stop  offset="1" style="stop-color:#3A54DA"/>
		</linearGradient>
		<path id="Path_471_1_" class="st5" d="M258.95,182.91l-31.15-76.28c-3.27-8.01-11.05-13.24-19.7-13.23H38.41l32.37,76.54
			c3.32,7.88,11.04,13.01,19.59,13.01L258.95,182.91z"/>
	</g>
</g>
</svg>
