<svg xmlns="http://www.w3.org/2000/svg" width="400" height="400" viewBox="0 0 400 400">
  <path id="Icon_simple-instagram" data-name="Icon simple-instagram" d="M200,0c-54.333,0-61.117.25-82.45,1.2-21.3,1-35.8,4.35-48.55,9.3A97.941,97.941,0,0,0,33.567,33.567,97.584,97.584,0,0,0,10.5,69C5.55,81.75,2.183,96.25,1.2,117.55.2,138.883,0,145.667,0,200s.25,61.117,1.2,82.45c1,21.283,4.35,35.8,9.3,48.55a98.081,98.081,0,0,0,23.067,35.433A97.8,97.8,0,0,0,69,389.5c12.767,4.933,27.267,8.317,48.55,9.3,21.333,1,28.117,1.2,82.45,1.2s61.117-.25,82.45-1.2c21.283-1,35.8-4.367,48.55-9.3A102.212,102.212,0,0,0,389.5,331c4.933-12.75,8.317-27.267,9.3-48.55,1-21.333,1.2-28.117,1.2-82.45s-.25-61.117-1.2-82.45c-1-21.283-4.367-35.817-9.3-48.55a98.16,98.16,0,0,0-23.067-35.433A97.446,97.446,0,0,0,331,10.5c-12.75-4.95-27.267-8.317-48.55-9.3C261.117.2,254.333,0,200,0Zm0,36c53.383,0,59.75.267,80.833,1.183,19.5.917,30.083,4.15,37.117,6.917a65.816,65.816,0,0,1,37.967,37.95c2.733,7.033,6,17.617,6.883,37.117.95,21.1,1.167,27.433,1.167,80.833s-.25,59.75-1.233,80.833c-1.017,19.5-4.267,30.083-7.017,37.117a63.5,63.5,0,0,1-14.983,23.033,62.4,62.4,0,0,1-23,14.933c-7,2.733-17.75,6-37.25,6.883-21.233.95-27.483,1.167-80.983,1.167-53.517,0-59.767-.25-80.983-1.233C99,361.717,88.25,358.467,81.25,355.717a61.936,61.936,0,0,1-22.983-14.983,60.729,60.729,0,0,1-15-23c-2.75-7-5.983-17.75-7-37.25-.75-21-1.017-27.483-1.017-80.733,0-53.267.267-59.767,1.017-81.017,1.017-19.5,4.25-30.233,7-37.233,3.5-9.5,7.983-16,15-23.017C65.25,51.5,71.767,47,81.25,43.517c7-2.767,17.517-6.017,37.017-7.017,21.25-.75,27.5-1,80.983-1l.75.5Zm0,61.3A102.7,102.7,0,1,0,302.7,200,102.693,102.693,0,0,0,200,97.3Zm0,169.367A66.667,66.667,0,1,1,266.667,200,66.648,66.648,0,0,1,200,266.667ZM330.767,93.25a24,24,0,1,1-24-23.983A24.017,24.017,0,0,1,330.767,93.25Z" fill="#fff"/>
</svg>
